{
    "accessors" : [{
        "bufferView" : 0, 
        "componentType" : 5123, 
        "count" : 26424, 
        "max" : [4521], 
        "min" : [0], 
        "type" : "SCALAR"
    }, {
        "bufferView" : 1, 
        "componentType" : 5126, 
        "count" : 4522, 
        "max" : [5.86838, 2.1747, 0.563267], 
        "min" : [-5.96589, -1.7685, -5.26881], 
        "type" : "VEC3"
    }, {
        "bufferView" : 2, 
        "componentType" : 5126, 
        "count" : 4522, 
        "max" : [0.999512, 0.999146, 0.999969], 
        "min" : [-0.999481, -0.99646, -0.999969], 
        "type" : "VEC3"
    }, {
        "bufferView" : 3, 
        "componentType" : 5126, 
        "count" : 4522, 
        "max" : [2.61168, 1.11795], 
        "min" : [-1.56819, -0.110041], 
        "type" : "VEC2"
    }, {
        "bufferView" : 4, 
        "componentType" : 5126, 
        "count" : 4522, 
        "max" : [2.43625, 1.64699, 1.88725], 
        "min" : [-3.02849, -2.09521, -1.64728], 
        "type" : "VEC3"
    }, {
        "bufferView" : 5, 
        "componentType" : 5126, 
        "count" : 4522, 
        "max" : [1.97635, 1.95223, 1.99081], 
        "min" : [-1.8727, -1.86758, -1.9863], 
        "type" : "VEC3"
    }, {
        "bufferView" : 6, 
        "componentType" : 5126, 
        "count" : 249, 
        "max" : [8.26667], 
        "min" : [0], 
        "type" : "SCALAR"
    }, {
        "bufferView" : 7, 
        "componentType" : 5126, 
        "count" : 249, 
        "max" : [1], 
        "min" : [0], 
        "type" : "SCALAR"
    }], 
    "animations" : [{
        "channels" : [{
            "sampler" : 0, 
            "target" : {
                "node" : 3, 
                "path" : "weights"
            }
        }], 
        "samplers" : [{
            "input" : 6, 
            "interpolation" : "LINEAR", 
            "output" : 7
        }]
    }], 
    "asset" : {
        "generator" : "Khronos Blender glTF 2.0 exporter", 
        "version" : "2.0"
    }, 
    "bufferViews" : [{
        "buffer" : 0, 
        "byteLength" : 52848, 
        "byteOffset" : 0, 
        "target" : 34963
    }, {
        "buffer" : 0, 
        "byteLength" : 54264, 
        "byteOffset" : 52848, 
        "target" : 34962
    }, {
        "buffer" : 0, 
        "byteLength" : 54264, 
        "byteOffset" : 107112, 
        "target" : 34962
    }, {
        "buffer" : 0, 
        "byteLength" : 36176, 
        "byteOffset" : 161376, 
        "target" : 34962
    }, {
        "buffer" : 0, 
        "byteLength" : 54264, 
        "byteOffset" : 197552
    }, {
        "buffer" : 0, 
        "byteLength" : 54264, 
        "byteOffset" : 251816
    }, {
        "buffer" : 0, 
        "byteLength" : 996, 
        "byteOffset" : 306080
    }, {
        "buffer" : 0, 
        "byteLength" : 996, 
        "byteOffset" : 307076
    }], 
    "buffers" : [{
        "byteLength" : 308072, 
        "uri" : "data:application/octet-stream;base64,"
    }], 
    "cameras" : [{
        "name" : "Camera", 
        "perspective" : {
            "aspectRatio" : 1.77778, 
            "yfov" : 0.50338, 
            "zfar" : 100, 
            "znear" : 0.1
        }, 
        "type" : "perspective"
    }], 
    "meshes" : [{
        "extras" : {
            "targetNames" : ["Key 1"]
        }, 
        "name" : "Untitled.017", 
        "primitives" : [{
            "attributes" : {
                "NORMAL" : 2, 
                "POSITION" : 1, 
                "TEXCOORD_0" : 3
            }, 
            "indices" : 0, 
            "targets" : [{
                "NORMAL" : 5, 
                "POSITION" : 4
            }]
        }], 
        "weights" : [0]
    }], 
    "nodes" : [{
        "camera" : 0, 
        "name" : "Correction_Camera", 
        "rotation" : [-0.707107, -0, 0, 0.707107]
    }, {
        "children" : [0], 
        "name" : "Camera", 
        "rotation" : [0.5, 0.5, -0.5, 0.5], 
        "translation" : [4, 0, -0]
    }, {
        "name" : "Lamp", 
        "rotation" : [0.169076, 0.75588, -0.272171, 0.570948], 
        "scale" : [1, 1, 1], 
        "translation" : [4.07625, 5.90386, -1.00545]
    }, {
        "extras" : {
            "MaxHandle" : 6
        }, 
        "mesh" : 0, 
        "name" : "Shoe", 
        "rotation" : [0.5, -0.5, 0.5, 0.5], 
        "scale" : [0.1, 0.1, 0.1], 
        "translation" : [2.95135e-10, 0.00753151, -0.0067519]
    }], 
    "scene" : 0, 
    "scenes" : [{
        "name" : "Scene", 
        "nodes" : [3, 2, 1]
    }]
}
